<?xml version="1.0" standalone="no"?>
<svg viewBox="0 0 200 200" xmlns="http://www.w3.org/2000/svg">
  <path fill="#FF0066" d="M40.2,-62.7C53.4,-62.1,66.1,-53.8,65.6,-42.1C65.1,-30.3,51.3,-15.2,47.8,-2C44.3,11.1,51.1,22.3,51.7,34.1C52.3,46,46.6,58.5,37,66.5C27.3,74.5,13.7,77.9,-0.5,78.8C-14.6,79.6,-29.3,77.8,-38.6,69.7C-48,61.5,-52.1,47,-52.5,34.3C-52.9,21.6,-49.7,10.8,-52.9,-1.9C-56.2,-14.5,-65.8,-29.1,-66.3,-43.2C-66.7,-57.4,-57.9,-71.2,-45.3,-72.1C-32.7,-73,-16.3,-61.1,-1.4,-58.7C13.5,-56.2,27.1,-63.3,40.2,-62.7Z" transform="translate(100 100)" />
</svg>
